<svg width="30" height="30" viewBox="0 0 30 30" fill="none" xmlns="http://www.w3.org/2000/svg">
<path d="M23.625 26.625L16.625 19.625C16 20.125 15.2812 20.5208 14.4688 20.8125C13.6562 21.1042 12.7917 21.25 11.875 21.25C9.60417 21.25 7.6825 20.4633 6.11 18.89C4.5375 17.3167 3.75083 15.395 3.75 13.125C3.75 10.8542 4.53667 8.9325 6.11 7.36C7.68333 5.7875 9.605 5.00083 11.875 5C14.1458 5 16.0675 5.78667 17.64 7.36C19.2125 8.93333 19.9992 10.855 20 13.125C20 14.0417 19.8542 14.9062 19.5625 15.7188C19.2708 16.5312 18.875 17.25 18.375 17.875L25.4062 24.9062C25.6354 25.1354 25.75 25.4167 25.75 25.75C25.75 26.0833 25.625 26.375 25.375 26.625C25.1458 26.8542 24.8542 26.9688 24.5 26.9688C24.1458 26.9688 23.8542 26.8542 23.625 26.625ZM11.875 18.75C13.4375 18.75 14.7658 18.2029 15.86 17.1088C16.9542 16.0146 17.5008 14.6867 17.5 13.125C17.5 11.5625 16.9529 10.2342 15.8588 9.14C14.7646 8.04583 13.4367 7.49917 11.875 7.5C10.3125 7.5 8.98417 8.04708 7.89 9.14125C6.79583 10.2354 6.24917 11.5633 6.25 13.125C6.25 14.6875 6.79708 16.0158 7.89125 17.11C8.98542 18.2042 10.3133 18.7508 11.875 18.75Z" fill="#052E4D"/>
</svg>
